<svg width="308" height="268" viewBox="0 0 308 268" fill="none" xmlns="http://www.w3.org/2000/svg">
<path d="M138.749 5.01514H81.8093V57.6516H138.749V5.01514Z" fill="url(#paint0_linear)"/>
<path d="M104.501 48.7034H100.194L88.8479 15.5425H93.1552L104.501 48.7034Z" fill="black"/>
<path d="M104.501 48.7036H100.194L107.968 29.5439H112.275L104.501 48.7036Z" fill="black"/>
<path d="M116.057 48.7034H120.47L131.816 15.5425H127.403L116.057 48.7034Z" fill="black"/>
<path d="M116.057 48.7036H120.469L112.59 29.5439H108.283L116.057 48.7036Z" fill="black"/>
<path d="M86.6418 15.5425H95.2564" stroke="black" stroke-width="1.55202" stroke-miterlimit="10" stroke-linecap="round" stroke-linejoin="round"/>
<path d="M124.777 15.5425H133.391" stroke="black" stroke-width="1.55202" stroke-miterlimit="10" stroke-linecap="round" stroke-linejoin="round"/>
<path d="M129.294 80.2852H159.13" stroke="black" stroke-width="1.55202" stroke-miterlimit="10" stroke-linecap="round" stroke-linejoin="round"/>
<path d="M63.1095 140.607C54.705 139.87 46.8259 137.554 39.9973 133.869C27.2857 127.132 17.6206 116.078 12.4729 102.708C9.8465 95.7604 8.37573 88.1808 8.37573 80.2853C8.37573 76.1797 8.79595 72.074 9.53134 68.1789C13.4184 48.914 26.4452 33.0178 43.7793 25.1223C51.4483 21.6483 59.8528 19.7534 68.7824 19.7534C102.19 19.7534 128.874 41.4396 129.189 80.2853C129.399 107.025 111.96 129.764 87.7974 137.764" stroke="black" stroke-width="1.55202" stroke-miterlimit="10" stroke-linecap="round" stroke-linejoin="round"/>
<path d="M219.642 140.817C184.658 140.817 159.235 113.657 159.235 80.2853C159.235 46.8086 186.339 19.7534 219.642 19.7534C253.049 19.7534 279.733 41.4396 280.048 80.2853C280.048 85.9701 279.313 91.4443 277.947 96.6026C276.056 103.551 272.905 109.972 268.807 115.657C267.547 117.447 266.076 119.236 264.605 120.815" stroke="black" stroke-width="1.55202" stroke-miterlimit="10" stroke-linecap="round" stroke-linejoin="round"/>
<path d="M95.9917 127.553V121.236H180.666V127.553H95.9917Z" fill="#05ADA3"/>
<path opacity="0.5" d="M95.9917 108.393V102.077H200.206V108.393H95.9917Z" fill="#05ADA3"/>
<path opacity="0.25" d="M95.9917 89.2334V82.917H200.206V89.2334H95.9917Z" fill="#05ADA3"/>
<path d="M146.103 13.0161H155.033L150.936 18.385L146.103 13.0161Z" stroke="black" stroke-width="1.55202" stroke-miterlimit="10" stroke-linecap="round" stroke-linejoin="round"/>
<path d="M205.669 14.9111H161.651" stroke="black" stroke-width="1.55202" stroke-miterlimit="10" stroke-linecap="round" stroke-linejoin="round"/>
<path d="M188.86 24.1753H160.495" stroke="black" stroke-width="1.55202" stroke-miterlimit="10" stroke-linecap="round" stroke-linejoin="round"/>
<path d="M87.9025 142.396L94.626 139.765L106.182 169.767L80.3385 179.663L68.7825 149.766L77.7122 146.292" stroke="black" stroke-width="1.55202" stroke-miterlimit="10" stroke-linecap="round" stroke-linejoin="round"/>
<path d="M41.0478 108.288C37.4759 111.867 30.3322 112.499 26.8654 108.288C17.4104 96.8134 11.1071 82.9174 9.53125 68.1792C13.4183 48.9142 26.4451 33.018 43.7792 25.1226C26.4451 44.0717 23.7137 73.2323 41.0478 94.0763C44.5146 98.1819 45.1449 104.077 41.0478 108.288Z" fill="black"/>
<path d="M48.1917 121.974C44.9349 127.448 42.2035 131.238 39.9974 133.764C27.2857 127.027 17.6206 115.973 12.4729 102.604C30.7525 79.4435 33.3789 79.0224 40.7327 88.497C40.8378 88.6022 40.8378 88.6022 40.9429 88.7075C43.4642 91.8657 46.0906 94.7081 48.1917 97.6557C52.604 104.077 54.8101 110.815 48.1917 121.974Z" fill="black" stroke="black" stroke-width="1.55202" stroke-miterlimit="10" stroke-linecap="round" stroke-linejoin="round"/>
<path d="M78.9727 131.027C69.8329 130.816 49.4522 129.342 49.1371 115.868C48.8219 103.551 29.7019 103.551 30.017 115.868C30.3322 126.711 36.4254 135.869 45.4601 141.659C55.3353 147.976 67.6268 148.502 78.9727 148.818C91.2642 149.029 91.2642 131.237 78.9727 131.027Z" stroke="black" stroke-width="1.55202" stroke-miterlimit="10" stroke-linecap="round" stroke-linejoin="round"/>
<path d="M68.047 135.343C68.9925 133.238 69.6228 132.185 71.4088 130.396C61.5336 129.764 49.4522 126.395 49.1371 115.763C48.8219 103.446 29.7019 103.446 30.017 115.763C30.3322 126.606 36.4254 135.764 45.4601 141.554C51.8685 145.66 59.3274 147.344 66.8914 148.081C66.3661 143.87 66.2611 139.449 68.047 135.343Z" fill="black"/>
<path d="M85.5912 139.344C87.2721 143.555 84.7507 148.713 81.8092 149.345" stroke="black" stroke-width="1.55202" stroke-miterlimit="10" stroke-linecap="round" stroke-linejoin="round"/>
<path d="M80.6535 154.292L79.813 157.45L78.0271 154.713L75.2957 135.448L77.922 135.027L80.6535 154.292Z" fill="black"/>
<path d="M71.0935 136.922C72.4592 146.713 75.821 152.713 78.4474 150.397C79.8131 149.134 76.3463 143.765 76.2412 142.397" fill="white"/>
<path d="M71.0935 136.922C72.4592 146.713 75.821 152.713 78.4474 150.397C79.8131 149.134 76.3463 143.765 76.2412 142.397" stroke="black" stroke-width="1.55202" stroke-miterlimit="10" stroke-linecap="round" stroke-linejoin="round"/>
<path d="M83.0699 141.239C85.9064 151.24 81.8092 154.503 80.4435 153.029C79.8131 152.398 80.2334 149.766 80.0233 147.45C79.8131 144.818 79.0778 142.397 79.0778 142.397" fill="white"/>
<path d="M83.0699 141.239C85.9064 151.24 81.8092 154.503 80.4435 153.029C79.8131 152.398 80.2334 149.766 80.0233 147.45C79.8131 144.818 79.0778 142.397 79.0778 142.397" stroke="black" stroke-width="1.55202" stroke-miterlimit="10" stroke-linecap="round" stroke-linejoin="round"/>
<path d="M79.8131 157.451H93.1551" stroke="black" stroke-width="1.55202" stroke-miterlimit="10" stroke-linecap="round" stroke-linejoin="round"/>
<path d="M81.9142 160.819H95.3612" stroke="black" stroke-width="1.55202" stroke-miterlimit="10" stroke-linecap="round" stroke-linejoin="round"/>
<path d="M49.137 119.658C48.5067 120.605 37.686 130.817 37.686 130.817" stroke="white" stroke-width="1.55202" stroke-miterlimit="10" stroke-linecap="round" stroke-linejoin="round"/>
<path d="M64.265 79.1275C63.0043 74.285 55.1252 70.811 51.4483 76.8115C49.7674 79.5486 49.3472 81.8646 49.8724 83.7595L41.6781 89.8654C41.363 89.5495 41.1529 89.2337 40.8377 88.8126C40.4175 92.7077 39.8922 102.919 39.8922 102.919L48.0865 97.7608C47.7713 97.2345 47.3511 96.8134 47.036 96.287L55.9656 89.6548C60.378 91.3392 62.7942 86.9177 62.7942 86.9177L64.7903 86.8124C64.6852 86.9177 65.5257 83.9701 64.265 79.1275Z" fill="white" stroke="black" stroke-width="1.55202" stroke-miterlimit="10" stroke-linecap="round" stroke-linejoin="round"/>
<path d="M66.3662 76.9166C65.2106 79.759 57.9617 80.2853 55.7556 79.6537C54.0747 79.1273 53.3393 81.3381 54.3899 82.3908C55.2303 83.3382 51.7635 84.2857 50.9231 84.1804C50.6079 84.0751 50.2927 84.0752 49.9776 83.8646C49.4523 81.8644 49.8725 79.5484 51.5534 76.706C53.2343 73.8637 57.3314 73.0215 60.9033 72.8109C64.4752 72.6004 67.4167 73.0215 66.3662 76.9166Z" fill="black"/>
<path d="M263.554 122.079C262.924 123.658 261.874 124.816 260.193 125.132C259.247 127.237 257.566 128.29 255.78 127.869C255.465 128.185 255.15 128.395 254.94 128.711C254.625 129.027 254.31 129.132 253.994 129.132C253.154 129.764 252.314 130.501 251.473 131.133C250.738 131.659 249.897 132.185 249.057 132.606L285.511 149.766L292.235 135.449L263.554 122.079Z" fill="url(#paint1_linear)"/>
<path d="M255.57 112.078L286.877 119.658L278.157 155.872L246.851 148.292L251.368 129.764" stroke="black" stroke-width="1.55202" stroke-miterlimit="10" stroke-linecap="round" stroke-linejoin="round"/>
<path d="M205.249 106.288C207.35 119.236 213.863 130.395 213.863 130.395L240.968 116.289L247.271 114.183L245.38 108.499C247.586 104.814 244.75 99.6556 240.547 94.0762L205.249 106.288Z" fill="black"/>
<path d="M239.077 117.026C230.252 122.184 218.696 125.974 209.031 121.447C205.354 119.763 205.144 117.657 207.035 114.288C209.871 109.341 216.595 107.551 221.637 106.182C234.664 102.708 229.096 82.3908 216.07 85.8648C205.354 88.7071 194.008 93.8655 188.545 104.182C183.082 114.394 183.713 127.658 192.852 135.659C210.081 150.713 240.127 142.817 255.57 128.606" fill="white"/>
<path d="M239.077 117.026C230.252 122.184 218.696 125.974 209.031 121.447C205.354 119.763 205.144 117.657 207.035 114.288C209.871 109.341 216.595 107.551 221.637 106.182C234.664 102.708 229.096 82.3908 216.07 85.8648C205.354 88.7071 194.008 93.8655 188.545 104.182C183.082 114.394 183.713 127.658 192.852 135.659C210.081 150.713 240.127 142.817 255.57 128.606" stroke="black" stroke-width="1.55202" stroke-miterlimit="10" stroke-linecap="round" stroke-linejoin="round"/>
<path d="M229.937 142.502C217.12 145.66 203.148 144.712 192.957 135.764C183.818 127.763 183.292 114.604 188.65 104.288C193.062 96.0762 201.152 91.1284 209.766 87.9702C211.867 87.2333 214.073 86.4964 216.175 85.97C216.805 85.7595 217.54 85.6542 218.171 85.6542C221.953 85.3384 224.999 87.0228 226.89 89.5493C230.567 94.3919 230.252 102.498 223.844 105.551C223.213 105.867 222.583 106.077 221.848 106.288C216.7 107.656 210.081 109.446 207.245 114.394C205.354 117.657 205.564 119.868 209.241 121.552C214.389 123.868 219.957 123.868 225.524 122.605C225.314 129.342 227.31 135.764 229.937 142.502Z" fill="black"/>
<path d="M277.947 96.6026C276.056 103.551 272.904 109.972 268.807 115.657C256.306 106.814 240.442 97.4448 225.945 104.709C225.209 105.024 224.474 105.34 223.738 105.551C219.116 106.814 214.178 105.34 211.552 100.919C209.556 97.5501 209.661 92.497 211.762 89.3388C212.603 88.0755 213.758 87.1281 215.229 86.6017C216.174 86.2859 217.12 85.9701 217.96 85.7595C223.844 83.9699 229.306 83.0224 234.559 82.8119C250.633 81.9697 264.29 87.6544 277.947 96.6026Z" fill="black"/>
<path d="M252.944 113.447C260.298 111.868 267.336 113.657 266.916 119.658L252.944 113.447Z" fill="white"/>
<path d="M252.944 113.447C260.298 111.868 267.336 113.657 266.916 119.658" stroke="black" stroke-width="1.55202" stroke-miterlimit="10" stroke-linecap="round" stroke-linejoin="round"/>
<path d="M269.963 124.5L270.593 127.974L267.336 126.395L253.784 107.762L256.411 105.972L269.963 124.5Z" fill="white" stroke="black" stroke-width="1.55202" stroke-miterlimit="10" stroke-linecap="round" stroke-linejoin="round"/>
<path d="M239.077 117.025C239.077 117.025 249.897 110.077 260.088 115.552C270.278 121.026 269.438 125.026 263.554 122.5C260.193 121.026 258.197 119.973 258.197 119.973" fill="white"/>
<path d="M239.077 117.025C239.077 117.025 249.897 110.077 260.088 115.552C270.278 121.026 269.438 125.026 263.554 122.5C260.193 121.026 258.197 119.973 258.197 119.973" stroke="black" stroke-width="1.55202" stroke-miterlimit="10" stroke-linecap="round" stroke-linejoin="round"/>
<path d="M263.554 122.5C263.765 123.342 261.663 126.921 258.827 125.342L263.554 122.5Z" fill="white"/>
<path d="M263.554 122.5C263.765 123.342 261.663 126.921 258.827 125.342" stroke="black" stroke-width="1.55202" stroke-miterlimit="10" stroke-linecap="round" stroke-linejoin="round"/>
<path d="M225.104 83.8645L221.112 73.653C222.583 72.2845 223.423 70.179 223.634 67.0208C223.949 59.9676 215.439 58.4937 211.762 61.7572C208.085 65.1259 207.14 67.9683 207.14 67.9683L208.716 69.1263C208.716 69.1263 208.19 74.0741 212.813 75.2321L217.015 85.8647C216.805 85.8647 216.49 85.97 216.28 86.0752C214.179 86.6016 211.972 87.3385 209.871 88.0754C210.607 88.6018 211.237 89.0229 211.972 89.3387C217.54 92.3916 222.688 91.8652 226.995 89.6545C230.147 87.9701 232.878 85.4436 234.874 82.8118C231.618 82.8118 228.466 83.2329 225.104 83.8645Z" fill="white" stroke="black" stroke-width="1.55202" stroke-miterlimit="10" stroke-linecap="round" stroke-linejoin="round"/>
<path d="M260.088 126.079C260.088 126.079 258.932 129.764 254.73 127.763L260.088 126.079Z" fill="white"/>
<path d="M260.088 126.079C260.088 126.079 258.932 129.764 254.73 127.763" stroke="black" stroke-width="1.55202" stroke-miterlimit="10" stroke-linecap="round" stroke-linejoin="round"/>
<path d="M250.002 53.1251C244.224 57.4413 241.703 52.1776 236.03 57.1255C231.723 60.81 222.373 55.8622 220.482 58.2835C219.957 59.0204 219.011 59.2309 218.276 58.5993C218.171 58.5993 218.171 58.494 218.066 58.494C215.229 56.2833 212.498 54.9147 211.237 58.8098C210.607 61.8627 216.28 66.2842 218.591 67.0211C220.272 67.5475 219.641 69.7582 218.171 70.074C217.856 70.1793 217.75 70.3899 217.856 70.8109C217.015 78.7064 225.209 82.7068 235.715 83.6542C246.22 84.6017 244.329 75.0219 244.014 69.6529C243.699 64.284 253.889 63.5471 257.987 57.5466C262.084 51.4407 255.78 48.8089 250.002 53.1251Z" fill="black"/>
<path d="M270.593 128.711L278.682 130.606" stroke="black" stroke-width="1.55202" stroke-miterlimit="10" stroke-linecap="round" stroke-linejoin="round"/>
<path d="M257.461 132.08L277.317 136.396" stroke="black" stroke-width="1.55202" stroke-miterlimit="10" stroke-linecap="round" stroke-linejoin="round"/>
<path d="M253.154 147.871L251.998 152.187" stroke="black" stroke-width="1.55202" stroke-miterlimit="10" stroke-linecap="round" stroke-linejoin="round"/>
<path d="M256.096 148.292L254.835 152.608" stroke="black" stroke-width="1.55202" stroke-miterlimit="10" stroke-linecap="round" stroke-linejoin="round"/>
<path d="M271.749 152.397L270.593 156.714" stroke="black" stroke-width="1.55202" stroke-miterlimit="10" stroke-linecap="round" stroke-linejoin="round"/>
<path d="M269.122 151.45L267.967 155.766" stroke="black" stroke-width="1.55202" stroke-miterlimit="10" stroke-linecap="round" stroke-linejoin="round"/>
<path d="M61.9961 166.895L52.2023 162.284L33.6601 201.826L43.4539 206.438L61.9961 166.895Z" stroke="black" stroke-width="1.55202" stroke-miterlimit="10" stroke-linecap="round" stroke-linejoin="round"/>
<path d="M105.762 183.663L51.6583 223.877" stroke="black" stroke-width="1.55202" stroke-miterlimit="10" stroke-linecap="round" stroke-linejoin="round"/>
<path d="M110.384 190.927L56.1758 231.141" stroke="black" stroke-width="1.55202" stroke-miterlimit="10" stroke-linecap="round" stroke-linejoin="round"/>
<path d="M74.2452 175.558L71.7239 179.769" stroke="black" stroke-width="1.55202" stroke-miterlimit="10" stroke-linecap="round" stroke-linejoin="round"/>
<path d="M154.717 129.027L157.554 130.922" stroke="black" stroke-width="1.55202" stroke-miterlimit="10" stroke-linecap="round" stroke-linejoin="round"/>
<path d="M163.647 111.13L162.071 114.71" stroke="black" stroke-width="1.55202" stroke-miterlimit="10" stroke-linecap="round" stroke-linejoin="round"/>
<path d="M134.337 136.712L131.185 140.818" stroke="black" stroke-width="1.55202" stroke-miterlimit="10" stroke-linecap="round" stroke-linejoin="round"/>
<path d="M178.565 132.501L181.086 129.343" stroke="black" stroke-width="1.55202" stroke-miterlimit="10" stroke-linecap="round" stroke-linejoin="round"/>
<path d="M181.717 70.7056L184.028 74.8112" stroke="black" stroke-width="1.55202" stroke-miterlimit="10" stroke-linecap="round" stroke-linejoin="round"/>
<path d="M129.294 45.5454L132.446 48.7036" stroke="black" stroke-width="1.55202" stroke-miterlimit="10" stroke-linecap="round" stroke-linejoin="round"/>
<path d="M169.11 243.143C166.379 243.038 164.278 240.827 164.383 238.09L167.639 133.975L171.947 125.658C172.682 124.29 174.678 124.5 175.098 125.974L177.514 134.291L174.258 238.406C174.048 241.143 171.841 243.248 169.11 243.143Z" fill="black"/>
<path d="M197.055 262.934C180.561 214.509 149.675 201.771 153.457 175.242C157.239 148.819 161.546 127.027 170.686 138.607C175.834 145.134 174.783 175.242 174.783 175.242" fill="white"/>
<path d="M197.055 262.934C180.561 214.509 149.675 201.771 153.457 175.242C157.239 148.819 161.546 127.027 170.686 138.607C175.834 145.134 174.783 175.242 174.783 175.242" stroke="black" stroke-width="1.55202" stroke-miterlimit="10" stroke-linecap="round" stroke-linejoin="round"/>
<path d="M175.729 179.768L177.409 134.291L174.678 125.132C174.258 123.658 172.262 123.447 171.526 124.816L167.534 133.975L166.694 161.03C168.69 167.03 171.631 174.926 175.729 179.768Z" fill="black"/>
<path d="M167.009 160.714C167.009 160.714 169.32 176.189 181.086 184.506C189.701 190.507 205.459 188.928 213.023 199.56" stroke="black" stroke-width="1.55202" stroke-miterlimit="10" stroke-linecap="round" stroke-linejoin="round"/>
<path d="M184.448 146.397C195.584 145.134 197.37 155.45 192.327 171.241C188.755 182.611 177.094 180.611 176.779 169.767C176.569 162.188 194.743 136.607 174.048 135.343" stroke="black" stroke-width="1.55202" stroke-miterlimit="10" stroke-linecap="round" stroke-linejoin="round"/>
<path d="M195.164 153.871C210.397 157.45 209.346 163.24 205.459 180.61C202.623 193.033 189.806 186.4 190.856 174.61" stroke="black" stroke-width="1.55202" stroke-miterlimit="10" stroke-linecap="round" stroke-linejoin="round"/>
<path d="M207.56 167.978C222.478 183.874 250.108 228.194 253.89 251.144" stroke="black" stroke-width="1.55202" stroke-miterlimit="10" stroke-linecap="round" stroke-linejoin="round"/>
<path d="M174.468 150.713C178.565 155.451 182.977 151.029 182.977 151.029" stroke="black" stroke-width="1.55202" stroke-miterlimit="10" stroke-linecap="round" stroke-linejoin="round"/>
<path d="M158.71 148.819C162.492 148.082 163.227 140.502 163.227 140.502" stroke="black" stroke-width="1.55202" stroke-miterlimit="10" stroke-linecap="round" stroke-linejoin="round"/>
<path d="M181.717 164.715C180.771 170.505 182.347 172.4 186.129 173.031" stroke="black" stroke-width="1.55202" stroke-miterlimit="10" stroke-linecap="round" stroke-linejoin="round"/>
<path d="M196.109 174.61C195.794 180.716 200.837 181.979 200.837 181.979" stroke="black" stroke-width="1.55202" stroke-miterlimit="10" stroke-linecap="round" stroke-linejoin="round"/>
<path d="M176.149 146.923C178.985 149.871 181.402 147.871 182.137 145.134" stroke="black" stroke-width="1.55202" stroke-miterlimit="10" stroke-linecap="round" stroke-linejoin="round"/>
<path d="M242.544 165.978L244.75 169.557" stroke="black" stroke-width="1.55202" stroke-miterlimit="10" stroke-linecap="round" stroke-linejoin="round"/>
<defs>
<linearGradient id="paint0_linear" x1="82.8076" y1="22.7628" x2="137.844" y2="41.5481" gradientUnits="userSpaceOnUse">
<stop stop-color="#10A8A6"/>
<stop offset="1" stop-color="#B9E6E6"/>
</linearGradient>
<linearGradient id="paint1_linear" x1="249.814" y1="131.414" x2="287.327" y2="149.873" gradientUnits="userSpaceOnUse">
<stop stop-color="#10A8A6"/>
<stop offset="1" stop-color="#B9E6E6"/>
</linearGradient>
</defs>
</svg>
