<svg width="310" height="217" viewBox="0 0 310 217" fill="none" xmlns="http://www.w3.org/2000/svg">
<path d="M44.3294 136.734C44.3294 180.934 80.2689 217.214 124.653 216.725C172.18 216.236 204.977 180.934 204.977 136.734C204.977 82.9496 168.448 55.9598 124.653 56.7421C80.2689 57.5244 44.3294 92.5329 44.3294 136.734Z" fill="url(#paint0_linear)"/>
<path d="M174.242 23.2982C178.071 17.5287 176.991 6.38071 165.11 10.3901C153.228 14.3994 154.799 13.8127 149.3 13.5193C143.801 13.2259 145.274 16.8441 148.907 18.7021C154.603 21.7336 156.665 17.7242 158.138 20.2668C159.611 22.8093 157.745 25.8407 162.655 25.7429C167.564 25.7429 174.242 23.2982 174.242 23.2982Z" fill="#0D2436"/>
<path d="M183.767 28.7744L172.081 21.2446C171.394 20.0711 170.118 19.0933 167.957 18.5065C163.244 17.2353 160.887 22.7115 162.655 25.7429C164.324 28.7744 166.19 29.8501 166.19 29.8501L167.172 28.97C167.172 28.97 169.725 29.8501 171.296 27.9921C171.492 27.6987 178.17 32.8815 178.17 32.8815C178.268 33.7616 183.963 31.3169 183.767 28.7744Z" fill="white" stroke="#0D2436" stroke-miterlimit="10" stroke-linecap="round" stroke-linejoin="round"/>
<path d="M162.164 21.7335C162.851 20.8534 163.44 19.9733 164.128 19.0932C165.502 18.5065 166.877 18.3109 167.957 18.6043C170.118 19.191 171.394 20.0711 172.081 21.3424C172.081 21.3424 170.019 25.4495 169.823 23.4937C169.528 21.5379 167.859 20.3645 166.877 22.7114C165.993 25.0583 162.655 25.9384 162.655 25.9384C162.556 25.9384 162.36 25.9384 162.262 25.9384C162.066 25.6451 161.967 25.3517 161.771 25.0583C161.869 23.7871 161.967 22.8092 162.164 21.7335Z" fill="#0D2436"/>
<path d="M167.368 22.907C166.877 22.6136 166.386 22.3203 165.895 22.0269C165.502 21.8313 165.011 21.8313 164.815 22.2225C164.619 22.5158 164.619 23.1026 165.011 23.2982C165.502 23.5915 165.993 23.8849 166.484 24.1783C166.877 24.3738 167.368 24.3738 167.564 23.9827C167.859 23.6893 167.761 23.1026 167.368 22.907Z" fill="#0D2436"/>
<path d="M273.91 130.768L298.36 134.093C299.244 127.639 292.567 125.585 292.567 125.585L293.647 117.762C293.647 117.762 293.549 117.762 293.451 117.664L275.972 116.1C275.285 122.456 273.91 130.768 273.91 130.768Z" fill="white" stroke="#0D2436" stroke-miterlimit="10" stroke-linecap="round" stroke-linejoin="round"/>
<path d="M184.356 154.531L200.46 173.111C205.37 168.906 201.835 162.941 201.835 162.941L207.824 157.758C207.824 157.758 207.824 157.66 207.824 157.562L195.845 144.85C190.935 149.153 184.356 154.531 184.356 154.531Z" fill="white" stroke="#0D2436" stroke-miterlimit="10" stroke-linecap="round" stroke-linejoin="round"/>
<path d="M201.933 162.941L198.496 159.518" stroke="#0D2436" stroke-miterlimit="10" stroke-linecap="round" stroke-linejoin="round"/>
<path d="M193.586 145.534C205.861 134.386 217.939 113.753 217.153 97.2266C216.367 79.1357 204.977 62.6093 189.364 53.7105C178.955 47.8432 187.105 32.5881 197.219 35.7173C198.398 34.2505 200.067 33.077 202.424 32.4903C225.205 26.3296 251.227 22.8092 272.241 36.2063C282.944 42.9537 290.21 53.1238 293.549 65.2496C296.789 76.5931 295.709 106.908 294.629 118.545C288.05 118.545 281.373 118.447 274.794 118.447C276.365 101.236 277.641 62.5115 260.948 52.537C247.201 44.4205 230.999 45.9852 215.877 49.5056C228.053 62.0226 235.614 78.5489 236.792 96.2488C238.265 117.469 223.339 145.143 207.825 159.616C203.013 155.118 198.594 149.837 193.586 145.534Z" fill="#0D2436"/>
<path d="M292.665 125.488L287.755 125.194" stroke="#0D2436" stroke-miterlimit="10" stroke-linecap="round" stroke-linejoin="round"/>
<path d="M129.465 67.8901L131.232 67.4989C131.429 67.2056 131.723 67.01 131.92 66.8144C132.312 66.4233 132.803 66.1299 133.392 65.8365C133.982 65.5432 134.571 65.3476 135.258 65.152C137.222 64.6631 139.186 63.9785 141.15 63.0984C141.444 62.9029 141.837 62.8051 142.132 62.6095C146.158 60.6537 150.086 57.9156 154.013 54.7864C154.701 54.1996 155.388 53.7107 155.977 53.124C159.709 49.8969 163.342 46.2787 166.779 42.6605C167.073 42.2694 167.466 41.976 167.761 41.5849C167.859 41.4871 167.957 41.3893 167.957 41.2915C168.252 40.9981 168.546 40.607 168.841 40.3136C170.51 38.4556 172.081 36.6954 173.653 34.9352C174.438 34.0551 175.224 33.175 175.911 32.2949C176.991 31.0236 178.071 29.7524 179.053 28.5789C179.348 28.2855 179.544 27.9922 179.741 27.6988C179.937 27.5032 180.133 27.3076 180.232 27.1121C180.33 26.9165 180.428 26.8187 180.526 26.6231C180.821 26.1342 181.115 25.743 181.508 25.3519C182.097 24.6673 182.785 23.9828 183.374 23.3961C186.025 20.658 188.971 18.1155 192.015 15.8663C192.506 15.573 192.899 15.1818 193.39 14.8884C197.121 12.2481 201.147 9.99899 205.271 8.14099C205.566 7.94542 205.959 7.84763 206.253 7.65205C210.083 5.98964 214.011 4.62059 218.135 3.6427C218.43 3.54491 218.822 3.44712 219.117 3.34933C219.608 3.25154 220.001 3.15376 220.492 3.05597C222.357 2.66481 224.223 2.27365 226.089 2.07808C227.758 1.8825 229.329 1.68692 230.999 1.58913C231.293 1.58913 231.686 1.58913 231.98 1.49134C235.908 1.29577 239.836 1.39355 243.862 1.78471C244.157 1.78471 244.549 1.8825 244.844 1.8825C245.139 1.8825 245.433 1.98029 245.63 1.98029C247.495 2.27366 249.361 2.56702 251.227 2.95818C253.092 3.34934 254.86 3.83828 256.627 4.32722C256.922 4.42501 257.315 4.5228 257.609 4.62059C257.708 4.62059 257.904 4.71838 258.002 4.71838C262.912 6.28301 264.189 10.8791 263.108 14.6929C263.01 14.9862 262.912 15.3774 262.814 15.6708C261.832 17.9199 260.064 19.6801 257.609 20.1691C257.315 20.2668 256.922 20.2668 256.627 20.2668C255.744 20.2668 254.762 20.169 253.78 19.8757C250.834 18.8978 247.79 18.2133 244.844 17.7243C244.549 17.7243 244.157 17.6265 243.862 17.6265C239.934 17.0398 235.908 16.942 231.98 17.1376C231.686 17.1376 231.293 17.1376 230.999 17.2354C226.973 17.5287 223.045 18.3111 219.117 19.4845C218.822 19.5823 218.43 19.6801 218.135 19.7779C214.011 21.0492 209.985 22.9071 206.253 25.1563C206.253 25.1563 206.155 25.1563 206.155 25.2541C205.959 25.3519 205.861 25.4497 205.664 25.5474L206.253 25.8408L210.279 27.5032L212.047 28.2855L211.949 28.4811L206.253 37.9667L205.271 39.6291L205.075 39.9224L204.879 40.3136L204.289 41.2915L197.219 53.124L196.63 54.1018L195.452 55.9598L193.979 58.4046L193.39 58.0134L192.408 57.3289L187.793 54.1018L186.32 53.124L181.705 49.8969C181.312 50.2881 180.919 50.6792 180.624 51.1682C180.33 51.5593 179.937 51.8527 179.642 52.2439C179.348 52.5372 179.053 52.8306 178.759 53.124C178.464 53.4173 178.169 53.8085 177.875 54.1018C174.733 57.4267 171.394 60.6537 167.761 63.6852C167.466 63.9785 167.073 64.2719 166.779 64.5653C166.288 65.0542 165.699 65.4454 165.208 65.9343C164.815 66.2277 164.422 66.6188 164.029 66.9122C161.084 69.2591 158.039 71.4105 154.995 73.3663C154.701 73.5619 154.308 73.7574 154.013 73.953C150.871 75.811 147.729 77.4734 144.587 78.6469C143.408 79.1358 142.328 79.527 141.15 79.8204C140.463 80.0159 139.677 80.2115 138.99 80.4071C136.044 81.1894 132.509 81.5806 129.268 81.6784C128.974 81.6784 128.581 81.6784 128.286 81.6784C127.894 81.6784 127.403 81.6784 127.01 81.6784C127.403 76.9845 127.599 72.2906 129.465 67.8901Z" fill="white" stroke="#0D2436" stroke-miterlimit="10" stroke-linecap="round" stroke-linejoin="round"/>
<path d="M253.78 19.8755C258.297 21.049 260.359 25.7429 261.832 24.4716C263.305 23.1026 260.261 21.6357 260.457 19.2888C260.653 16.9419 269.295 22.6136 269.884 19.5822C270.178 17.9198 264.385 15.1817 264.385 15.1817C264.385 15.1817 270.375 17.822 271.062 15.475C271.75 13.1281 264.778 10.9767 264.778 10.9767C264.778 10.9767 269.884 13.4215 270.277 10.8789C270.669 8.43422 261.635 6.18508 258.1 4.91382" fill="white"/>
<path d="M253.78 19.8755C258.297 21.049 260.359 25.7429 261.832 24.4716C263.305 23.1026 260.261 21.6357 260.457 19.2888C260.653 16.9419 269.295 22.6136 269.884 19.5822C270.178 17.9198 264.385 15.1817 264.385 15.1817C264.385 15.1817 270.375 17.822 271.062 15.475C271.75 13.1281 264.778 10.9767 264.778 10.9767C264.778 10.9767 269.884 13.4215 270.277 10.8789C270.669 8.43422 261.635 6.18508 258.1 4.91382" stroke="#0D2436" stroke-miterlimit="10" stroke-linecap="round" stroke-linejoin="round"/>
<path d="M183.57 23.2004H183.276L180.723 20.7557L180.133 20.1689L179.741 20.8535L176.598 25.9385L179.741 27.5031L179.937 27.6009L181.705 28.481L192.604 33.7616L193.586 34.1528L205.173 39.8245L205.37 39.9223L208.021 41.1936L209.396 41.8781L209.592 41.1936L209.788 40.2157L212.145 28.481V28.1876L210.672 27.5031L206.351 25.3518L206.253 25.254L205.37 24.8628L204.289 24.2761" fill="white"/>
<path d="M183.57 23.2004H183.276L180.723 20.7557L180.133 20.1689L179.741 20.8535L176.598 25.9385L179.741 27.5031L179.937 27.6009L181.704 28.481L192.604 33.7616L193.586 34.1528L205.173 39.8245L205.37 39.9223L208.021 41.1936L209.396 41.8781L209.592 41.1936L209.788 40.2157L212.145 28.481V28.1876L210.672 27.5031L206.351 25.3518L206.253 25.254L205.37 24.8628L204.289 24.2761" stroke="#0D2436" stroke-miterlimit="10" stroke-linecap="round" stroke-linejoin="round"/>
<path d="M180.723 47.7455L181.803 49.799L183.079 53.0261L183.472 54.004L186.32 61.0448L192.604 59.3824L193.586 59.089L197.416 58.1111L195.55 55.862L194.077 54.004L192.604 52.2438L183.57 41.1936L182.686 40.2157L180.723 37.771L179.741 36.5975L176.107 32.197L173.554 29.1655L170.51 32.5881L173.653 34.5439L173.751 34.8373" fill="white"/>
<path d="M180.723 47.7455L181.803 49.799L183.079 53.0261L183.472 54.004L186.32 61.0448L192.604 59.3824L193.586 59.089L197.416 58.1111L195.55 55.862L194.077 54.004L192.604 52.2438L183.57 41.1936L182.686 40.2157L180.723 37.771L179.741 36.5975L176.107 32.197L173.554 29.1655L170.51 32.5881L173.653 34.5439L173.751 34.8373" stroke="#0D2436" stroke-miterlimit="10" stroke-linecap="round" stroke-linejoin="round"/>
<path d="M256.431 4.42505C256.431 4.42505 252.994 15.9642 252.405 19.3868L256.431 4.42505Z" fill="white"/>
<path d="M256.431 4.42505C256.431 4.42505 252.994 15.9642 252.405 19.3868" stroke="#0D2436" stroke-miterlimit="10" stroke-linecap="round" stroke-linejoin="round"/>
<path d="M142.23 78.5489H144.685C143.801 78.94 142.819 79.2334 141.936 79.5268C141.739 78.94 141.445 78.3533 141.248 77.7666V66.7164H136.535C136.437 66.423 136.24 66.0319 136.142 65.7385H141.248V62.9026C141.543 62.7071 141.936 62.6093 142.23 62.4137V65.6407H154.112V54.4928C154.799 53.906 155.486 53.4171 156.076 52.8304H166.877V42.3669C167.172 41.9758 167.564 41.6824 167.859 41.2913V52.8304H178.857C178.562 53.1237 178.268 53.5149 177.973 53.8083H167.859V63.3916C167.564 63.6849 167.172 63.9783 166.877 64.2717V53.8083H154.995V65.6407H165.208C164.815 65.9341 164.422 66.3253 164.029 66.6186H154.995V73.0727C154.701 73.2683 154.308 73.4639 154.014 73.6594V66.6186H142.132V78.5489H142.23Z" fill="#0D2436"/>
<path d="M192.604 52.4392C192.997 52.9282 193.39 53.4171 193.783 54.0038H193.586V59.1867L192.604 59.48V54.1016H183.472L183.079 53.1237H192.506V52.4392H192.604Z" fill="#0D2436"/>
<path d="M169.037 40.2158H179.741V37.1843C180.035 37.5755 180.428 37.9666 180.723 38.26V40.2158H182.392C182.686 40.5092 182.981 40.9003 183.276 41.1937H180.723V51.0704C180.428 51.4615 180.035 51.7549 179.741 52.146V41.1937H168.154C168.448 40.9003 168.743 40.6069 169.037 40.2158Z" fill="#0D2436"/>
<path d="M180.133 20.1689L180.723 20.7557V27.5031H192.604V15.6706H192.211C192.702 15.3773 193.095 14.9861 193.586 14.6928H205.468V7.84752C205.762 7.65194 206.155 7.55415 206.45 7.35858V14.595H218.331V3.44701C218.626 3.34923 219.019 3.25143 219.313 3.15364V14.6928H231.195V2.86028H220.688C222.554 2.46912 224.419 2.07797 226.285 1.88239H231.195V1.39344C231.489 1.39344 231.882 1.39344 232.177 1.29565V1.88239H243.862V1.68681C244.157 1.68681 244.549 1.7846 244.844 1.7846V1.88239H245.63C247.495 2.17575 249.361 2.46912 251.227 2.86028H244.844V14.6928H253.485C253.387 14.9861 253.289 15.3773 253.191 15.6706H244.942V17.7242C244.648 17.7242 244.255 17.6264 243.96 17.6264V15.6706H232.079V17.1375C231.784 17.1375 231.391 17.1375 231.097 17.2353V15.6706H219.215V19.4844C218.921 19.5822 218.528 19.68 218.233 19.7778V15.6706H206.352V27.5031H210.672L212.145 28.2854V28.481H206.352V40.3135H206.941C206.941 40.4113 206.842 40.6068 206.842 40.7046L205.468 40.0201V28.481H193.586V34.6417C193.292 34.5439 192.899 34.3484 192.604 34.2506V28.5788H182.097C181.312 28.1876 180.526 27.7965 179.741 27.5031V20.9513L180.133 20.1689ZM232.079 14.6928H243.862V2.86028H231.98V14.6928H232.079ZM193.586 27.5031H205.468V15.6706H193.586V27.5031Z" fill="#0D2436"/>
<path d="M141.445 79.3313C138.695 71.8015 136.24 65.1519 136.24 65.1519L141.445 79.3313Z" fill="white"/>
<path d="M141.445 79.3313C138.695 71.8015 136.24 65.1519 136.24 65.1519" stroke="#0D2436" stroke-miterlimit="10" stroke-linecap="round" stroke-linejoin="round"/>
<path d="M129.031 94.7973C129.142 94.8672 129.142 94.8672 129.254 94.937C129.435 94.8959 129.546 94.9657 129.797 94.8135L134.879 91.1853C135.2 90.9221 135.228 90.6301 135.034 90.1985C134.77 89.8779 134.477 89.8492 134.045 90.0426L129.536 93.2553L120.283 80.3234C120.018 80.0028 119.726 79.9741 119.293 80.1675C118.972 80.4308 118.944 80.7227 119.138 81.1544L128.808 94.6576C128.92 94.7275 128.92 94.7275 129.031 94.7973Z" fill="#0D2436"/>
<path d="M112.366 64.5062C110.833 61.6198 108.935 56.1426 110.331 55.1803C111.724 54.2202 116.316 57.7045 118.617 60.0335L112.366 64.5062Z" fill="#0D2436"/>
<path d="M119.565 61.0944C119.582 61.1164 119.598 61.1381 119.614 61.1595C122.838 65.6605 126.033 70.1441 129.229 74.6277C130.969 77.0699 132.71 79.5122 134.455 81.9572L127.989 86.5842C126.241 84.134 124.496 81.6866 122.752 79.2393C119.556 74.7556 116.361 70.2719 113.137 65.7708C113.125 65.7544 113.112 65.7376 113.1 65.7205L119.565 61.0944Z" fill="#0D2436"/>
<path d="M132.367 92.7074C131.178 91.048 129.993 89.3909 128.811 87.7354L135.277 83.1084C136.463 84.7692 137.651 86.4315 138.844 88.0961C141.622 92.3178 135.326 96.8879 132.367 92.7074Z" fill="#0D2436"/>
<path d="M112.371 59.0939C112.594 59.2336 112.887 59.2623 113.138 59.1101C113.459 58.8468 113.488 58.5549 113.293 58.1232L109.5 52.8C109.236 52.4794 108.944 52.4507 108.511 52.6441C108.19 52.9074 108.161 53.1993 108.356 53.6309L112.149 58.9542C112.26 59.024 112.26 59.024 112.371 59.0939Z" fill="#0D2436"/>
<path d="M130.447 73.9529C130.447 73.9529 127.795 73.6595 126.421 72.1927C125.046 70.7258 120.234 72.3882 120.529 70.2369C120.824 68.0855 129.268 67.1076 135.258 65.1519" fill="white"/>
<path d="M130.447 73.9529C130.447 73.9529 127.795 73.6595 126.421 72.1927C125.046 70.7258 120.234 72.3882 120.529 70.2369C120.824 68.0855 129.268 67.1076 135.258 65.1519" stroke="#0D2436" stroke-miterlimit="10" stroke-linecap="round" stroke-linejoin="round"/>
<path d="M62.0045 15.573C36.4737 84.7098 77.7158 138.2 100.202 138.103C152.442 137.809 168.841 140.254 166.877 150.717" stroke="#0D2436" stroke-miterlimit="10" stroke-linecap="round" stroke-linejoin="round"/>
<path d="M143.703 149.837C166.484 149.544 169.725 150.033 170.118 155.216C170.51 160.888 161.771 161.377 161.771 161.377" stroke="#0D2436" stroke-miterlimit="10" stroke-linecap="round" stroke-linejoin="round"/>
<path d="M1.81086 56.6445C-0.840412 149.837 54.4435 184.846 107.862 178.685C161.378 172.525 165.699 167.342 161.771 161.181C159.611 157.856 149.595 157.856 140.757 158.541" stroke="#0D2436" stroke-miterlimit="10" stroke-linecap="round" stroke-linejoin="round"/>
<path d="M117.726 97.3613L85.1466 122.75L104.428 147.397L137.006 122.009L117.726 97.3613Z" stroke="#0D2436" stroke-miterlimit="10" stroke-linecap="round" stroke-linejoin="round"/>
<path d="M109.617 116.339L117.884 127.065" stroke="#0D2436" stroke-miterlimit="10" stroke-linecap="round" stroke-linejoin="round"/>
<path d="M107.964 126.24L112.097 132.015" stroke="#0D2436" stroke-miterlimit="10" stroke-linecap="round" stroke-linejoin="round"/>
<path d="M112.015 109.041L123.092 123.15" stroke="#0D2436" stroke-miterlimit="10" stroke-linecap="round" stroke-linejoin="round"/>
<path d="M160.019 136.926L127.9 123.764L117.884 148.114L128.632 152.518C128.632 152.518 137.606 150.587 141.085 154.062C142.593 155.569 141.085 157.62 141.085 157.62L150.004 161.275L160.019 136.926Z" fill="#F2F6F9" stroke="#0D2436" stroke-miterlimit="10" stroke-linecap="round" stroke-linejoin="round"/>
<path d="M144.061 135.631L138.357 149.492" stroke="#0D2436" stroke-miterlimit="10" stroke-linecap="round" stroke-linejoin="round"/>
<path d="M144.805 148.172C144.309 149.327 143.896 150.4 143.4 151.555" stroke="#0D2436" stroke-miterlimit="10" stroke-linecap="round" stroke-linejoin="round"/>
<path d="M149.104 137.694C148.195 139.921 147.285 142.149 146.376 144.377" stroke="#0D2436" stroke-miterlimit="10" stroke-linecap="round" stroke-linejoin="round"/>
<path d="M76.5375 153.162C104.229 143.481 105.014 159.91 122.1 154.238C139.186 148.566 147.042 154.238 137.91 161.181C128.777 168.124 117.289 169.493 104.621 172.133" stroke="#0D2436" stroke-miterlimit="10" stroke-linecap="round" stroke-linejoin="round"/>
<path d="M182.392 119.816L163.539 129.008" stroke="#0D2436" stroke-miterlimit="10" stroke-linecap="round" stroke-linejoin="round"/>
<path d="M168.35 102.801L163.146 110.624" stroke="#0D2436" stroke-miterlimit="10" stroke-linecap="round" stroke-linejoin="round"/>
<path d="M78.5014 93.6084L92.1505 106.223" stroke="#0D2436" stroke-miterlimit="10" stroke-linecap="round" stroke-linejoin="round"/>
<path d="M98.7296 94.4885L100.89 99.2802" stroke="#0D2436" stroke-miterlimit="10" stroke-linecap="round" stroke-linejoin="round"/>
<path d="M236.105 142.503L238.658 144.459" stroke="#0D2436" stroke-miterlimit="10" stroke-linecap="round" stroke-linejoin="round"/>
<path d="M226.482 153.358L225.991 157.269" stroke="#0D2436" stroke-miterlimit="10" stroke-linecap="round" stroke-linejoin="round"/>
<path d="M258.69 83.5361L261.93 86.0786" stroke="#0D2436" stroke-miterlimit="10" stroke-linecap="round" stroke-linejoin="round"/>
<path d="M303.761 122.261H307.493" stroke="#0D2436" stroke-miterlimit="10" stroke-linecap="round" stroke-linejoin="round"/>
<path d="M129.367 43.4426L127.599 46.4741" stroke="#0D2436" stroke-miterlimit="10" stroke-linecap="round" stroke-linejoin="round"/>
<path d="M72.4134 35.5217L76.3412 38.162" stroke="#0D2436" stroke-miterlimit="10" stroke-linecap="round" stroke-linejoin="round"/>
<path d="M96.9622 200.981L94.7037 203.621" stroke="#0D2436" stroke-miterlimit="10" stroke-linecap="round" stroke-linejoin="round"/>
<path d="M240.815 174.792L244.286 169.692L249.408 173.149L245.936 178.249L240.815 174.792Z" fill="#0D2436"/>
<path d="M66.718 62.0227L67.0126 62.316C68.4855 63.5873 70.744 63.4895 72.0206 61.9249L72.3151 61.6315C73.5917 60.1647 73.4935 57.9155 71.9224 56.6443L71.6278 56.3509C70.1549 55.0796 67.8964 55.1774 66.6198 56.742L66.3252 57.0354C65.0487 58.5022 65.1469 60.7514 66.718 62.0227Z" fill="#0D2436"/>
<defs>
<linearGradient id="paint0_linear" x1="202.16" y1="110.675" x2="44.6061" y2="160.588" gradientUnits="userSpaceOnUse">
<stop stop-color="#10A8A6"/>
<stop offset="1" stop-color="#B9E6E6"/>
</linearGradient>
</defs>
</svg>
