<svg width="332" height="311" viewBox="0 0 332 311" fill="none" xmlns="http://www.w3.org/2000/svg">
<path d="M258.979 224.707L132.32 244.96L93.5549 64.4077L220.214 44.1543L258.979 224.707Z" fill="white"/>
<path fill-rule="evenodd" clip-rule="evenodd" d="M220.138 43.6804C220.39 43.6401 220.629 43.8041 220.683 44.0535L259.448 224.606C259.476 224.735 259.449 224.87 259.375 224.978C259.301 225.087 259.185 225.16 259.055 225.181L132.396 245.434C132.144 245.475 131.905 245.311 131.851 245.061L93.0859 64.5085C93.0582 64.3797 93.0847 64.2452 93.1591 64.1366C93.2335 64.0279 93.3492 63.9546 93.4792 63.9338L220.138 43.6804ZM94.1303 64.8017L132.694 244.415L258.404 224.313L219.84 44.7001L94.1303 64.8017Z" fill="black"/>
<path d="M207.932 92.6282L82.5203 118.641L77.0509 93.1081L202.462 67.0955L207.932 92.6282Z" fill="#FFD166"/>
<g clip-path="url(#clip0)">
<path d="M94.9 109.068C94.7069 109.108 94.5204 108.986 94.4803 108.793L94.1196 107.055L93.772 107.127C92.7099 107.348 91.6773 106.837 91.1752 105.873C91.1479 105.839 91.1439 105.819 91.1358 105.781C91.0958 105.588 91.2182 105.401 91.4113 105.361C91.5851 105.325 91.7443 105.413 91.819 105.579C92.1564 106.234 92.9132 106.58 93.6277 106.432L93.9753 106.36L93.3019 103.116L92.9543 103.188C91.6605 103.456 90.4013 102.63 90.1327 101.336C90.0005 100.699 90.1159 100.091 90.4679 99.5545C90.8046 99.0415 91.3511 98.6662 91.969 98.5379L92.3166 98.4658L91.9559 96.7278C91.9158 96.5347 92.0382 96.3482 92.2314 96.3081C92.4245 96.268 92.611 96.3904 92.6511 96.5835L93.0118 98.3215L93.3594 98.2493C94.4215 98.0289 95.4927 98.5317 95.9562 99.5031C96.0542 99.6841 95.9784 99.9013 95.7973 99.9993C95.7587 100.007 95.7434 100.031 95.7048 100.039C95.5503 100.071 95.3718 99.9869 95.3011 99.8404C94.9597 99.166 94.2222 98.8155 93.4884 98.9678L93.1408 99.04L93.8182 102.303L94.1658 102.231C94.7837 102.103 95.4305 102.211 95.9821 102.539C96.4951 102.876 96.8704 103.422 96.9987 104.04C97.2672 105.334 96.4409 106.593 95.147 106.862L94.7994 106.934L95.1602 108.672C95.2156 108.842 95.0931 109.028 94.9 109.068ZM94.6552 106.239L95.0027 106.167C95.4276 106.079 95.8163 105.817 96.0419 105.447C96.2867 105.074 96.353 104.617 96.2649 104.193C96.1727 103.748 95.938 103.394 95.5649 103.149C95.1918 102.905 94.7502 102.815 94.3254 102.903L93.9778 102.975L94.6552 106.239ZM92.098 99.2564C91.6732 99.3446 91.3037 99.6026 91.0589 99.9757C90.8294 100.325 90.7437 100.786 90.8319 101.211C91.0163 102.099 91.9024 102.681 92.7907 102.497L93.119 102.428L92.4456 99.1843L92.098 99.2564Z" fill="black"/>
<path d="M95.4218 111.679C90.4782 112.705 85.6046 109.507 84.5785 104.564C83.5524 99.6201 86.7507 94.7465 91.6942 93.7205C96.6378 92.6944 101.511 95.8926 102.538 100.836C103.564 105.78 100.365 110.653 95.4218 111.679ZM86.2096 98.5449C85.2132 100.343 84.8802 102.426 85.293 104.415C86.2389 108.973 90.7161 111.911 95.2735 110.965C97.2432 110.556 99.022 109.421 100.294 107.788L100.421 107.62L98.5785 106.411C98.5085 106.366 98.4499 106.277 98.4298 106.18C98.4098 106.084 98.4324 105.999 98.4743 105.909C98.5202 105.839 98.6087 105.781 98.7053 105.761C98.8018 105.741 98.9064 105.759 98.9764 105.805L100.819 107.014L100.922 106.832C101.941 105.049 102.255 102.969 101.838 100.961C100.892 96.4038 96.4152 93.4658 91.8578 94.4117C89.8881 94.8205 88.1094 95.9551 86.8371 97.5888L86.7106 97.7561L88.5528 98.965C88.7161 99.0721 88.7642 99.3038 88.657 99.4671C88.5918 99.541 88.5033 99.5997 88.426 99.6157C88.3295 99.6358 88.2442 99.6132 88.155 99.5713L86.3128 98.3624L86.2096 98.5449Z" fill="black"/>
</g>
<path d="M258.979 224.707L140.093 253.887L101.327 73.3345L220.214 44.1543L258.979 224.707Z" fill="white"/>
<path fill-rule="evenodd" clip-rule="evenodd" d="M220.469 43.7475C220.578 43.8163 220.656 43.9267 220.683 44.0535L259.448 224.606C259.503 224.86 259.346 225.111 259.094 225.173L140.207 254.353C140.081 254.384 139.948 254.363 139.838 254.294C139.728 254.225 139.651 254.115 139.624 253.988L100.858 73.4353C100.804 73.1814 100.961 72.9303 101.213 72.8684L220.1 43.6881C220.226 43.6572 220.359 43.6786 220.469 43.7475ZM101.894 73.6895L140.458 253.303L258.412 224.352L219.849 44.7381L101.894 73.6895Z" fill="black"/>
<path d="M120.422 101.555C138.461 97.2354 157.076 92.3401 174.444 88.3086L120.422 101.555Z" fill="white"/>
<path fill-rule="evenodd" clip-rule="evenodd" d="M174.911 88.2002C174.971 88.4584 174.811 88.7163 174.552 88.7762C164.808 91.0381 154.683 93.569 144.483 96.1186C136.497 98.1148 128.465 100.123 120.534 102.022C120.276 102.083 120.017 101.924 119.955 101.667C119.894 101.409 120.053 101.15 120.31 101.088C128.217 99.195 136.245 97.1883 144.233 95.1917C154.446 92.6389 164.593 90.1025 174.336 87.8411C174.594 87.7812 174.851 87.942 174.911 88.2002Z" fill="black"/>
<path d="M122.053 111.634C140.093 107.314 158.708 102.419 176.075 98.3875L122.053 111.634Z" fill="white"/>
<path fill-rule="evenodd" clip-rule="evenodd" d="M176.542 98.279C176.602 98.5372 176.442 98.7951 176.184 98.855C166.439 101.117 156.314 103.648 146.114 106.197C138.128 108.194 130.096 110.201 122.165 112.101C121.907 112.162 121.648 112.003 121.587 111.746C121.525 111.488 121.684 111.229 121.941 111.167C129.848 109.274 137.876 107.267 145.864 105.271C156.077 102.718 166.225 100.181 175.967 97.92C176.225 97.8601 176.483 98.0208 176.542 98.279Z" fill="black"/>
<path d="M124.068 122.096C142.108 117.777 160.723 112.882 178.09 108.85L124.068 122.096Z" fill="white"/>
<path fill-rule="evenodd" clip-rule="evenodd" d="M178.558 108.742C178.617 109 178.457 109.258 178.199 109.318C168.454 111.58 158.329 114.11 148.13 116.66C140.144 118.656 132.112 120.664 124.18 122.563C123.922 122.625 123.663 122.466 123.602 122.208C123.54 121.95 123.699 121.691 123.957 121.63C131.863 119.736 139.891 117.73 147.879 115.733C158.093 113.18 168.24 110.644 177.982 108.383C178.24 108.323 178.498 108.483 178.558 108.742Z" fill="black"/>
<path d="M239.117 206.47L226.451 209.253L187.686 28.6044L196.225 33.4038L200.351 25.9167L239.117 206.47Z" fill="white"/>
<path fill-rule="evenodd" clip-rule="evenodd" d="M200.421 25.4419C200.619 25.4711 200.779 25.6202 200.821 25.8159L239.586 206.369C239.641 206.627 239.478 206.882 239.22 206.938L226.554 209.722C226.429 209.749 226.299 209.726 226.191 209.657C226.084 209.588 226.009 209.479 225.982 209.354L187.217 28.7051C187.177 28.5206 187.249 28.33 187.401 28.218C187.553 28.1061 187.756 28.0935 187.921 28.186L196.039 32.7484L199.931 25.685C200.028 25.5097 200.223 25.4127 200.421 25.4419ZM200.152 27.2729L196.646 33.6355C196.584 33.7475 196.48 33.8303 196.357 33.8653C196.234 33.9004 196.102 33.8849 195.99 33.8222L188.378 29.544L226.819 208.681L238.547 206.103L200.152 27.2729Z" fill="black"/>
<path d="M184.189 41.3029L171.524 44.0242L210.293 224.586L222.958 221.865L184.189 41.3029Z" fill="white"/>
<path fill-rule="evenodd" clip-rule="evenodd" d="M171.055 44.125C170.999 43.8658 171.164 43.6106 171.423 43.555L184.088 40.8337C184.347 40.7781 184.602 40.943 184.658 41.2022L223.427 221.764C223.482 222.023 223.318 222.278 223.058 222.334L210.394 225.055C210.135 225.111 209.879 224.946 209.824 224.687L171.055 44.125ZM172.093 44.3927L210.661 224.016L222.388 221.496L183.82 41.873L172.093 44.3927Z" fill="black"/>
<path d="M258.979 224.707L170.606 266.846L131.841 86.2929L220.214 44.1543L258.979 224.707Z" fill="url(#paint0_linear)"/>
<path fill-rule="evenodd" clip-rule="evenodd" d="M212.775 104.605C212.893 104.842 212.797 105.13 212.56 105.248L165.734 128.573C165.497 128.691 165.209 128.595 165.091 128.358C164.973 128.12 165.069 127.832 165.307 127.714L212.132 104.389C212.369 104.271 212.657 104.367 212.775 104.605Z" fill="black"/>
<path fill-rule="evenodd" clip-rule="evenodd" d="M216.329 121.409C216.443 121.648 216.343 121.934 216.104 122.049C213.709 123.199 211.218 124.445 208.722 125.693C208.485 125.812 208.197 125.716 208.079 125.479C207.96 125.242 208.056 124.953 208.293 124.835L208.296 124.833C210.789 123.586 213.286 122.337 215.689 121.184C215.927 121.069 216.214 121.17 216.329 121.409Z" fill="black"/>
<path fill-rule="evenodd" clip-rule="evenodd" d="M204.325 127.341C204.45 127.575 204.362 127.866 204.128 127.991C197.92 131.314 191.382 134.493 184.701 137.741C179.619 140.212 174.454 142.723 169.289 145.369C169.053 145.489 168.764 145.396 168.644 145.16C168.523 144.924 168.616 144.635 168.852 144.514C174.062 141.846 179.236 139.331 184.317 136.861C190.972 133.625 197.468 130.467 203.676 127.145C203.909 127.019 204.2 127.108 204.325 127.341Z" fill="black"/>
<path d="M231.872 41.6765L219.207 44.3977L257.976 224.96L270.641 222.238L231.872 41.6765Z" fill="black"/>
<path fill-rule="evenodd" clip-rule="evenodd" d="M218.738 44.4985C218.683 44.2394 218.848 43.9842 219.107 43.9285L231.772 41.2073C232.031 41.1516 232.286 41.3166 232.341 41.5757L271.111 222.138C271.166 222.397 271.001 222.652 270.742 222.708L258.077 225.429C257.818 225.485 257.563 225.32 257.508 225.06L218.738 44.4985ZM219.777 44.7662L258.345 224.39L270.072 221.87L231.504 42.2465L219.777 44.7662Z" fill="black"/>
<path d="M150.56 92.1499C150.602 90.348 149.175 88.8539 147.374 88.8127C145.572 88.7714 144.079 90.1987 144.038 92.0006C143.996 93.8025 145.423 95.2966 147.224 95.3379C149.026 95.3791 150.519 93.9518 150.56 92.1499Z" fill="white"/>
<path fill-rule="evenodd" clip-rule="evenodd" d="M144.517 92.0115C144.482 93.5484 145.699 94.8228 147.235 94.858C148.772 94.8932 150.046 93.6758 150.081 92.1389C150.116 90.602 148.899 89.3276 147.363 89.2924C145.826 89.2572 144.552 90.4746 144.517 92.0115ZM147.213 95.8176C145.147 95.7703 143.511 94.0564 143.558 91.9895C143.605 89.9227 145.319 88.2855 147.385 88.3328C149.451 88.3801 151.087 90.094 151.04 92.1609C150.993 94.2277 149.28 95.8649 147.213 95.8176Z" fill="black"/>
<path d="M160.913 87.7754C160.954 85.9735 159.527 84.4794 157.726 84.4381C155.925 84.3969 154.431 85.8242 154.39 87.6261C154.349 89.4279 155.776 90.9221 157.577 90.9633C159.378 91.0046 160.872 89.5773 160.913 87.7754Z" fill="white"/>
<path fill-rule="evenodd" clip-rule="evenodd" d="M154.87 87.637C154.835 89.1739 156.052 90.4483 157.588 90.4835C159.124 90.5187 160.398 89.3013 160.433 87.7644C160.469 86.2275 159.252 84.9531 157.715 84.9179C156.179 84.8827 154.905 86.1001 154.87 87.637ZM157.566 91.4431C155.5 91.3958 153.863 89.6819 153.911 87.615C153.958 85.5481 155.671 83.911 157.737 83.9583C159.803 84.0056 161.44 85.7195 161.393 87.7863C161.345 89.8532 159.632 91.4904 157.566 91.4431Z" fill="black"/>
<path d="M170.683 83.7542C170.724 81.9523 169.297 80.4582 167.496 80.4169C165.695 80.3757 164.201 81.803 164.16 83.6048C164.119 85.4067 165.546 86.9009 167.347 86.9421C169.148 86.9833 170.642 85.5561 170.683 83.7542Z" fill="white"/>
<path fill-rule="evenodd" clip-rule="evenodd" d="M164.64 83.6158C164.604 85.1527 165.821 86.4271 167.358 86.4622C168.894 86.4974 170.168 85.28 170.203 83.7431C170.238 82.2062 169.021 80.9318 167.485 80.8966C165.949 80.8615 164.675 82.0789 164.64 83.6158ZM167.336 87.4218C165.27 87.3745 163.633 85.6607 163.68 83.5938C163.728 81.5269 165.441 79.8898 167.507 79.9371C169.573 79.9844 171.21 81.6982 171.162 83.7651C171.115 85.832 169.402 87.4691 167.336 87.4218Z" fill="black"/>
<path d="M103.15 168.938C88.7573 170.762 82.5203 191.592 89.333 203.014C93.0752 209.253 83.5758 215.301 79.8336 209.061C68.4151 189.96 79.6417 160.588 102.575 157.612C109.867 156.748 110.347 168.075 103.15 168.938Z" fill="white"/>
<path fill-rule="evenodd" clip-rule="evenodd" d="M102.634 158.088C91.3739 159.55 82.9594 167.494 78.7646 177.475C74.5677 187.461 74.6268 199.416 80.2453 208.815C81.111 210.258 82.2856 210.962 83.4971 211.152C84.7228 211.344 86.0275 211.015 87.1324 210.312C88.2368 209.609 89.1112 208.55 89.496 207.325C89.8771 206.111 89.7876 204.705 88.9216 203.261L88.921 203.26C85.4226 197.394 85.296 189.174 87.8389 182.212C90.3829 175.247 95.6545 169.404 103.09 168.462L103.093 168.462C106.382 168.067 107.94 165.295 107.817 162.65C107.755 161.33 107.273 160.09 106.415 159.236C105.569 158.394 104.321 157.889 102.634 158.088ZM103.209 169.415C107.116 168.945 108.916 165.622 108.775 162.605C108.705 161.092 108.15 159.609 107.092 158.555C106.022 157.49 104.476 156.903 102.518 157.135L102.518 157.135L102.513 157.136C90.841 158.65 82.1768 166.88 77.88 177.103C73.585 187.323 73.6218 199.605 79.4218 209.308L79.4222 209.308C80.4276 210.984 81.8435 211.864 83.3486 212.1C84.8396 212.334 86.3775 211.93 87.6475 211.122C88.9179 210.313 89.9506 209.08 90.4114 207.612C90.8758 206.133 90.7495 204.444 89.745 202.768C86.4306 197.211 86.2695 189.306 88.7401 182.541C91.2095 175.781 96.2525 170.297 103.209 169.415Z" fill="black"/>
<path d="M115.145 176.617H68.3191V209.733H115.145V176.617Z" fill="white"/>
<path fill-rule="evenodd" clip-rule="evenodd" d="M67.8394 176.617C67.8394 176.352 68.0542 176.137 68.3191 176.137H115.145C115.41 176.137 115.624 176.352 115.624 176.617V209.733C115.624 209.998 115.41 210.213 115.145 210.213H68.3191C68.0542 210.213 67.8394 209.998 67.8394 209.733V176.617ZM68.7989 177.097V209.253H114.665V177.097H68.7989Z" fill="black"/>
<path d="M117.735 173.834H70.9099V206.95H117.735V173.834Z" fill="white"/>
<path fill-rule="evenodd" clip-rule="evenodd" d="M70.4301 173.834C70.4301 173.569 70.6449 173.354 70.9098 173.354H117.735C118 173.354 118.215 173.569 118.215 173.834V206.949C118.215 207.215 118 207.429 117.735 207.429H70.9098C70.6449 207.429 70.4301 207.215 70.4301 206.949V173.834ZM71.3896 174.314V206.47H117.255V174.314H71.3896Z" fill="black"/>
<path fill-rule="evenodd" clip-rule="evenodd" d="M77.5307 184.2C77.7956 184.2 78.0104 184.415 78.0104 184.68V202.054C78.0104 202.319 77.7956 202.534 77.5307 202.534C77.2657 202.534 77.0509 202.319 77.0509 202.054V184.68C77.0509 184.415 77.2657 184.2 77.5307 184.2Z" fill="black"/>
<path fill-rule="evenodd" clip-rule="evenodd" d="M81.7526 184.2C82.0176 184.2 82.2324 184.415 82.2324 184.68V202.054C82.2324 202.319 82.0176 202.534 81.7526 202.534C81.4876 202.534 81.2728 202.319 81.2728 202.054V184.68C81.2728 184.415 81.4876 184.2 81.7526 184.2Z" fill="black"/>
<path d="M146.138 252.927C146.138 252.927 145.754 261.374 145.37 264.446L165.136 262.43C165.136 262.43 166.192 256.383 160.339 256.767L159.955 252.927" fill="white"/>
<path fill-rule="evenodd" clip-rule="evenodd" d="M159.907 252.45C160.171 252.424 160.406 252.616 160.432 252.88L160.771 256.27C162.086 256.255 163.087 256.568 163.835 257.098C164.666 257.687 165.133 258.507 165.389 259.308C165.645 260.107 165.697 260.907 165.69 261.498C165.686 261.795 165.666 262.045 165.647 262.222C165.638 262.31 165.629 262.381 165.622 262.43C165.618 262.455 165.615 262.474 165.613 262.488L165.61 262.505L165.609 262.51L165.609 262.512C165.609 262.512 165.609 262.513 165.136 262.43L165.609 262.513C165.572 262.725 165.399 262.886 165.185 262.908L145.419 264.923C145.273 264.938 145.129 264.886 145.027 264.781C144.925 264.677 144.876 264.532 144.894 264.386C145.083 262.869 145.275 260.006 145.419 257.507C145.491 256.261 145.55 255.11 145.592 254.271C145.613 253.852 145.63 253.51 145.641 253.274L145.658 252.906L146.138 252.927C146.617 252.949 146.617 252.949 146.617 252.949L146.6 253.319C146.588 253.557 146.572 253.899 146.551 254.319C146.509 255.16 146.449 256.313 146.377 257.563C146.25 259.763 146.085 262.279 145.914 263.908L164.705 261.992C164.717 261.854 164.727 261.681 164.73 261.485C164.737 260.954 164.688 260.266 164.475 259.601C164.264 258.938 163.897 258.319 163.28 257.882C162.666 257.446 161.751 257.155 160.37 257.246C160.112 257.263 159.887 257.072 159.861 256.815L159.477 252.975C159.451 252.711 159.643 252.476 159.907 252.45ZM146.138 252.927L146.617 252.949C146.629 252.685 146.424 252.46 146.159 252.448C145.895 252.436 145.67 252.641 145.658 252.906L146.138 252.927Z" fill="black"/>
<path d="M45.0023 241.217C63.3295 233.922 91.5399 199.654 91.1561 181.705C91.0601 176.233 96.3376 174.122 100.368 175.466C101.711 174.986 103.15 174.89 104.686 175.178C135.103 180.265 159.763 224.323 159.955 253.024H146.234C145.946 231.234 126.563 196.583 104.494 190.44C103.342 212.229 71.3896 245.633 50.1838 254.079C48.4567 249.664 46.9214 245.345 45.0023 241.217Z" fill="black"/>
<path fill-rule="evenodd" clip-rule="evenodd" d="M104.597 175.649C103.137 175.375 101.785 175.469 100.529 175.917C100.428 175.954 100.318 175.955 100.216 175.921C98.3232 175.29 96.1395 175.474 94.4541 176.445C92.7901 177.404 91.5912 179.14 91.6358 181.696C91.7339 186.296 90.0043 191.885 87.1143 197.762C84.2188 203.65 80.1355 209.873 75.4717 215.755C66.3148 227.302 54.8517 237.618 45.648 241.472C46.9983 244.428 48.1663 247.484 49.3512 250.583C49.7153 251.536 50.0811 252.493 50.4542 253.452C60.8871 249.154 73.8961 238.874 84.5006 226.944C89.8741 220.899 94.6161 214.446 98.084 208.156C101.555 201.86 103.732 195.76 104.015 190.414C104.022 190.269 104.095 190.135 104.214 190.05C104.332 189.965 104.482 189.938 104.622 189.977C115.827 193.096 126.273 203.415 133.938 215.609C141.499 227.637 146.426 241.602 146.704 252.544H159.47C159.24 238.383 153.096 220.519 143.254 205.509C133.294 190.319 119.623 178.162 104.606 175.651L104.597 175.649L104.597 175.649ZM104.769 174.705C103.219 174.415 101.746 174.496 100.362 174.96C98.2617 174.308 95.8647 174.525 93.9751 175.614C92.0171 176.742 90.6253 178.798 90.6764 181.713L90.6764 181.715C90.77 186.089 89.1172 191.514 86.2533 197.338C83.3945 203.152 79.3517 209.317 74.72 215.158C65.4418 226.859 53.8713 237.17 44.825 240.771C44.7024 240.82 44.6053 240.917 44.5565 241.04C44.5078 241.162 44.5117 241.3 44.5673 241.419C45.9923 244.484 47.2025 247.65 48.4452 250.901C48.8688 252.009 49.2961 253.127 49.7371 254.254C49.7836 254.373 49.8757 254.469 49.9929 254.52C50.11 254.571 50.2427 254.573 50.3613 254.525C61.0605 250.264 74.4089 239.741 85.2177 227.582C90.627 221.496 95.4144 214.985 98.9242 208.62C102.304 202.489 104.516 196.463 104.934 191.067C115.588 194.279 125.643 204.216 133.126 216.12C140.736 228.226 145.611 242.25 145.754 253.03C145.757 253.292 145.971 253.503 146.234 253.503H159.955C160.083 253.503 160.205 253.452 160.295 253.362C160.385 253.271 160.436 253.148 160.435 253.02C160.338 238.556 154.084 220.277 144.056 204.982C134.034 189.698 120.168 177.282 104.769 174.705Z" fill="black"/>
<path d="M103.15 147.245C102.383 143.214 107.18 141.582 109.579 143.214C111.978 144.846 112.842 146.477 112.842 146.477L112.074 147.245C112.074 147.245 112.746 150.125 110.155 151.085L108.428 159.724L103.63 158.956L105.261 150.893C104.206 150.221 103.534 149.069 103.15 147.245Z" fill="white"/>
<path fill-rule="evenodd" clip-rule="evenodd" d="M103.621 147.151C103.991 148.905 104.616 149.913 105.519 150.488C105.686 150.594 105.771 150.793 105.732 150.988L104.199 158.561L108.048 159.177L109.685 150.991C109.717 150.827 109.832 150.692 109.988 150.635C111.086 150.228 111.481 149.437 111.614 148.717C111.683 148.35 111.68 148.004 111.66 147.748C111.65 147.621 111.636 147.518 111.624 147.449C111.619 147.414 111.614 147.389 111.611 147.372L111.607 147.356L111.607 147.354C111.607 147.354 111.607 147.354 111.607 147.354C111.607 147.354 111.607 147.354 112.074 147.245C112.541 147.136 112.541 147.136 112.541 147.137L112.541 147.137L112.542 147.138L112.543 147.142L112.545 147.151C112.546 147.159 112.549 147.17 112.551 147.183C112.557 147.21 112.564 147.246 112.571 147.293C112.577 147.326 112.583 147.365 112.589 147.409C112.599 147.484 112.609 147.573 112.617 147.672C112.642 147.986 112.645 148.42 112.558 148.893C112.39 149.797 111.879 150.85 110.575 151.432L108.898 159.818C108.848 160.071 108.607 160.238 108.352 160.197L103.554 159.43C103.425 159.409 103.31 159.337 103.236 159.229C103.161 159.122 103.134 158.989 103.16 158.86L104.728 151.107C103.686 150.322 103.047 149.086 102.681 147.344L102.679 147.335L102.679 147.335C102.249 145.076 103.398 143.466 104.961 142.677C106.487 141.907 108.477 141.884 109.849 142.817C111.088 143.66 111.936 144.506 112.477 145.148C112.747 145.469 112.941 145.739 113.069 145.931C113.133 146.028 113.18 146.105 113.213 146.159C113.229 146.187 113.241 146.208 113.25 146.224L113.261 146.243L113.264 146.249L113.265 146.251L113.265 146.252L113.266 146.252C113.266 146.253 113.266 146.253 112.842 146.477L113.266 146.253C113.364 146.439 113.33 146.668 113.181 146.817L112.589 147.409M112.233 146.408L111.735 146.906C111.618 147.023 111.569 147.192 111.607 147.354M112.233 146.408C112.123 146.247 111.963 146.027 111.743 145.767C111.253 145.185 110.469 144.399 109.309 143.611C108.282 142.912 106.674 142.888 105.393 143.534C104.151 144.161 103.286 145.38 103.621 147.151" fill="black"/>
<path d="M109.195 143.022C109.771 144.75 107.372 146.285 106.125 146.861C105.165 147.341 105.741 148.589 106.605 148.589C107.372 148.685 106.221 150.509 105.837 150.701C105.645 150.797 105.549 150.893 105.357 150.989C104.302 150.317 103.63 149.165 103.246 147.245C102.383 143.406 106.701 141.774 109.195 143.022Z" fill="black"/>
<path d="M102.383 157.324L102.958 155.692L109.771 155.404L110.635 157.516" fill="white"/>
<path fill-rule="evenodd" clip-rule="evenodd" d="M109.751 154.925C109.953 154.916 110.139 155.035 110.215 155.222L111.079 157.334C111.179 157.579 111.062 157.86 110.816 157.96C110.571 158.06 110.291 157.943 110.191 157.697L109.455 155.898L103.303 156.158L102.835 157.484C102.747 157.733 102.473 157.865 102.223 157.776C101.973 157.688 101.842 157.414 101.93 157.164L102.506 155.532C102.571 155.347 102.742 155.221 102.938 155.212L109.751 154.925Z" fill="black"/>
<path d="M106.605 157.324C95.2822 157.324 94.8984 158.764 93.3631 166.347C91.8278 173.93 90.7723 180.361 90.7723 180.361L112.554 177.097C112.554 177.097 113.513 169.706 114.281 165.579C115.145 161.355 115.528 157.324 106.605 157.324Z" fill="white"/>
<path fill-rule="evenodd" clip-rule="evenodd" d="M99.9021 157.193C101.592 156.933 103.77 156.844 106.605 156.844C111.098 156.844 113.475 157.852 114.526 159.622C115.043 160.495 115.199 161.493 115.18 162.516C115.162 163.534 114.968 164.614 114.752 165.67C114.37 167.723 113.94 170.592 113.604 172.953C113.437 174.134 113.293 175.185 113.191 175.942C113.14 176.32 113.1 176.625 113.072 176.834L113.03 177.159C113.002 177.371 112.837 177.54 112.625 177.572L90.8433 180.835C90.6917 180.858 90.5383 180.807 90.4306 180.698C90.323 180.588 90.274 180.434 90.2988 180.283L90.3112 180.208L90.3474 179.99C90.3793 179.799 90.4267 179.518 90.4882 179.157C90.6113 178.434 90.7915 177.392 91.0196 176.113C91.4758 173.555 92.1242 170.047 92.8928 166.251C93.2745 164.366 93.5929 162.817 94.0356 161.576C94.4829 160.323 95.0718 159.34 96.0215 158.611C96.9636 157.887 98.2112 157.452 99.9021 157.193ZM91.3544 179.788L112.125 176.676C112.153 176.467 112.192 176.174 112.24 175.814C112.342 175.055 112.486 174.001 112.654 172.818C112.99 170.454 113.423 167.566 113.809 165.491L113.811 165.482C114.026 164.428 114.204 163.422 114.221 162.498C114.238 161.577 114.094 160.776 113.7 160.112C112.928 158.811 111.035 157.804 106.605 157.804C103.778 157.804 101.662 157.894 100.048 158.142C98.4341 158.389 97.3668 158.788 96.6057 159.372C95.8522 159.951 95.3496 160.749 94.9393 161.899C94.5245 163.061 94.2192 164.536 93.8332 166.442C93.0665 170.229 92.4196 173.728 91.9642 176.282C91.7366 177.558 91.5569 178.598 91.4341 179.318C91.4041 179.494 91.3774 179.651 91.3544 179.788Z" fill="black"/>
<path d="M45.0023 241.217L34.1595 244.673L41.452 262.046C41.452 262.046 47.1133 260.223 46.2497 256.191L50.0879 253.983" fill="white"/>
<path fill-rule="evenodd" clip-rule="evenodd" d="M45.4595 241.071C45.5399 241.324 45.4005 241.594 45.148 241.674L34.805 244.971L41.7163 261.436C41.8337 261.389 41.972 261.331 42.1255 261.261C42.6234 261.036 43.2724 260.698 43.8909 260.244C45.1434 259.324 46.1526 258.028 45.7806 256.292C45.737 256.088 45.8299 255.879 46.0106 255.775L49.8488 253.567C50.0785 253.435 50.3717 253.514 50.5038 253.744C50.6359 253.974 50.5568 254.267 50.3271 254.4L46.7801 256.44C47.0675 258.552 45.7507 260.069 44.4586 261.018C43.7697 261.523 43.0574 261.893 42.5208 262.136C42.2516 262.258 42.0242 262.348 41.8629 262.409C41.7822 262.44 41.7179 262.463 41.6729 262.478C41.6505 262.486 41.6328 262.492 41.6204 262.496L41.6057 262.501L41.6014 262.503L41.6 262.503C41.5998 262.503 41.5991 262.503 41.4521 262.046L41.6 262.503C41.363 262.579 41.1061 262.462 41.0097 262.232L33.7172 244.858C33.6651 244.734 33.6675 244.594 33.724 244.472C33.7804 244.349 33.8856 244.256 34.0139 244.215L44.8567 240.76C45.1092 240.679 45.3791 240.819 45.4595 241.071Z" fill="black"/>
<path d="M161.97 185.544C161.682 184.392 157.652 187.368 157.652 187.368C157.652 187.368 161.586 184.296 161.01 183.433C160.627 182.857 158.42 183.624 157.172 184.104C158.42 183.528 160.531 182.473 159.955 181.513C159.187 180.169 153.334 182.665 153.43 181.705C153.526 180.745 157.556 179.017 155.925 177.961C153.622 176.521 149.88 182.377 146.042 183.528C145.466 183.72 144.89 183.816 144.314 183.912C144.986 187.656 145.658 191.303 146.329 195.047C148.536 194.663 150.743 194.087 152.854 193.223C153.142 193.127 153.334 193.031 153.526 192.839C160.531 189.768 162.258 186.6 161.97 185.544Z" fill="white"/>
<path fill-rule="evenodd" clip-rule="evenodd" d="M153.736 177.632C154.53 177.238 155.394 177.063 156.179 177.554L156.186 177.558C156.449 177.729 156.66 177.953 156.749 178.246C156.839 178.542 156.78 178.824 156.672 179.057C156.472 179.493 156.036 179.9 155.633 180.237C155.433 180.405 155.221 180.571 155.02 180.729L154.988 180.754C154.775 180.922 154.576 181.079 154.402 181.228C154.321 181.297 154.249 181.362 154.186 181.422C154.201 181.42 154.217 181.418 154.234 181.416C154.63 181.359 155.136 181.246 155.703 181.12C155.885 181.08 156.074 181.038 156.267 180.996C157.039 180.828 157.876 180.663 158.576 180.631C158.926 180.615 159.273 180.63 159.574 180.711C159.874 180.791 160.185 180.952 160.369 181.27C160.619 181.69 160.556 182.122 160.357 182.477C160.302 182.574 160.236 182.668 160.162 182.758C160.253 182.751 160.342 182.747 160.427 182.747C160.722 182.749 161.167 182.803 161.41 183.166C161.598 183.449 161.561 183.764 161.489 183.994C161.415 184.229 161.277 184.466 161.121 184.688C161.07 184.76 161.016 184.833 160.959 184.907C160.988 184.898 161.016 184.889 161.045 184.881C161.278 184.816 161.549 184.769 161.8 184.822C161.934 184.85 162.076 184.909 162.198 185.021C162.32 185.133 162.396 185.274 162.434 185.423C162.547 185.845 162.442 186.365 162.192 186.901C161.933 187.455 161.49 188.089 160.827 188.771C159.51 190.125 157.292 191.703 153.796 193.245C153.558 193.461 153.313 193.575 153.022 193.673C150.876 194.55 148.64 195.132 146.412 195.52C146.152 195.565 145.904 195.392 145.857 195.132C145.522 193.261 145.186 191.413 144.85 189.566C144.514 187.718 144.178 185.87 143.842 183.997C143.82 183.871 143.848 183.741 143.922 183.636C143.996 183.531 144.109 183.46 144.236 183.439C144.817 183.342 145.356 183.251 145.89 183.073L145.904 183.069C146.784 182.805 147.685 182.261 148.595 181.585C149.288 181.07 149.963 180.497 150.626 179.933C150.835 179.756 151.044 179.579 151.251 179.405C152.099 178.694 152.943 178.025 153.736 177.632ZM157.937 187.754C157.726 187.91 157.429 187.867 157.27 187.658C157.111 187.449 157.15 187.151 157.357 186.99M160.57 183.717C160.537 183.815 160.463 183.955 160.336 184.136C160.075 184.507 159.664 184.946 159.215 185.378C158.77 185.806 158.305 186.209 157.95 186.507C157.773 186.655 157.624 186.776 157.519 186.86C157.467 186.902 157.426 186.935 157.398 186.957L157.367 186.982L157.359 186.988L157.357 186.99M160.57 183.717C160.536 183.712 160.488 183.707 160.422 183.707C160.198 183.706 159.891 183.753 159.526 183.839C158.804 184.012 157.965 184.314 157.345 184.552C157.103 184.645 156.831 184.53 156.73 184.291C156.63 184.053 156.736 183.777 156.971 183.669C157.597 183.38 158.394 182.99 158.961 182.568C159.248 182.354 159.433 182.162 159.52 182.007C159.593 181.876 159.579 181.818 159.544 181.76L159.538 181.751C159.53 181.736 159.491 181.682 159.327 181.638C159.161 181.594 158.926 181.576 158.62 181.59C158.01 181.618 157.246 181.765 156.47 181.934C156.295 181.972 156.118 182.011 155.942 182.05C155.366 182.179 154.806 182.304 154.369 182.366C154.091 182.405 153.803 182.43 153.57 182.39C153.454 182.37 153.29 182.324 153.154 182.199C152.993 182.051 152.933 181.85 152.953 181.657C152.979 181.392 153.128 181.169 153.261 181.007C153.404 180.833 153.588 180.662 153.778 180.499C153.97 180.334 154.185 180.165 154.395 179.999L154.423 179.977C154.628 179.817 154.829 179.659 155.017 179.501C155.43 179.155 155.702 178.871 155.801 178.656C155.843 178.565 155.833 178.531 155.831 178.526C155.829 178.518 155.809 178.458 155.667 178.366C155.301 178.139 154.835 178.158 154.162 178.492C153.485 178.827 152.722 179.424 151.867 180.141C151.67 180.306 151.469 180.477 151.264 180.651C150.596 181.219 149.888 181.82 149.167 182.356C148.227 183.054 147.223 183.674 146.186 183.986C145.741 184.134 145.299 184.228 144.872 184.304C145.179 186.013 145.487 187.703 145.794 189.394C146.102 191.086 146.409 192.779 146.717 194.49C148.74 194.112 150.749 193.566 152.673 192.779C152.683 192.775 152.693 192.771 152.703 192.768C152.952 192.685 153.067 192.62 153.187 192.5C153.229 192.458 153.279 192.424 153.333 192.4C156.797 190.881 158.922 189.352 160.139 188.101C160.747 187.475 161.12 186.928 161.323 186.494C161.487 186.142 161.525 185.9 161.519 185.762C161.47 185.766 161.399 185.779 161.303 185.806C160.946 185.905 160.458 186.144 159.942 186.44C159.435 186.732 158.934 187.06 158.557 187.318C158.369 187.446 158.213 187.556 158.105 187.633C158.05 187.672 158.008 187.702 157.979 187.723L157.947 187.747L157.939 187.753L157.937 187.754" fill="black"/>
<path d="M110.731 157.708C114.569 159.148 116.68 160.395 116.584 164.139C116.296 177.769 133.568 186.696 145.85 183.624C147.001 187.176 147.673 190.919 148.728 194.567C130.497 199.174 109.004 187.08 105.741 168.554" fill="white"/>
<path fill-rule="evenodd" clip-rule="evenodd" d="M110.281 157.539C110.374 157.291 110.651 157.165 110.899 157.258C112.814 157.977 114.39 158.677 115.466 159.714C116.576 160.784 117.114 162.172 117.063 164.15C116.925 170.74 121.029 176.241 126.753 179.735C132.48 183.232 139.737 184.658 145.733 183.159C145.978 183.098 146.228 183.236 146.306 183.476C146.888 185.271 147.347 187.111 147.791 188.947C147.848 189.182 147.905 189.417 147.961 189.652C148.347 191.256 148.732 192.854 149.189 194.434C149.225 194.559 149.209 194.693 149.145 194.806C149.08 194.919 148.972 195.001 148.846 195.032C139.593 197.371 129.532 195.468 121.377 190.649C113.221 185.829 106.929 178.065 105.269 168.638C105.223 168.377 105.397 168.128 105.658 168.082C105.919 168.036 106.168 168.21 106.214 168.471C107.816 177.57 113.901 185.116 121.865 189.822C129.689 194.446 139.284 196.304 148.13 194.219C147.726 192.774 147.375 191.317 147.028 189.875C146.972 189.64 146.915 189.406 146.859 189.173C146.45 187.484 146.035 185.818 145.528 184.194C139.333 185.592 132.024 184.078 126.253 180.555C120.343 176.946 115.956 171.169 116.104 164.129L116.104 164.127C116.149 162.362 115.68 161.254 114.8 160.405C113.884 159.522 112.486 158.879 110.562 158.157C110.314 158.064 110.188 157.788 110.281 157.539Z" fill="black"/>
<path d="M103.822 143.886C102.191 145.517 100.56 152.812 86.6463 147.533C72.733 142.254 75.7075 150.797 70.3341 152.812C64.8647 154.828 61.9861 154.348 62.3699 157.612C62.6578 159.819 72.541 160.395 76.763 156.844C79.7376 154.348 80.2174 155.5 85.2069 158.284C94.7064 163.659 104.206 169.034 108.044 150.797C109.867 141.966 103.822 143.886 103.822 143.886Z" fill="black"/>
<path fill-rule="evenodd" clip-rule="evenodd" d="M138.293 149.785C138.375 149.533 138.645 149.394 138.897 149.476L142.447 150.628C142.7 150.71 142.838 150.98 142.756 151.233C142.674 151.485 142.403 151.623 142.151 151.541L138.601 150.389C138.349 150.307 138.211 150.037 138.293 149.785Z" fill="black"/>
<path fill-rule="evenodd" clip-rule="evenodd" d="M133.815 156.004C134.067 156.088 134.203 156.36 134.119 156.612L133.063 159.779C132.979 160.031 132.708 160.167 132.456 160.083C132.205 159.999 132.069 159.727 132.153 159.476L133.208 156.308C133.292 156.057 133.564 155.921 133.815 156.004Z" fill="black"/>
<path fill-rule="evenodd" clip-rule="evenodd" d="M144.913 166.493C145.15 166.612 145.246 166.9 145.127 167.137L143.784 169.825C143.665 170.062 143.377 170.158 143.14 170.039C142.903 169.921 142.807 169.633 142.926 169.395L144.269 166.708C144.388 166.471 144.676 166.375 144.913 166.493Z" fill="black"/>
<path fill-rule="evenodd" clip-rule="evenodd" d="M120.938 131.364C121.12 131.172 121.424 131.165 121.616 131.347L123.535 133.171C123.727 133.353 123.735 133.657 123.552 133.849C123.37 134.042 123.066 134.049 122.874 133.867L120.955 132.043C120.763 131.86 120.755 131.557 120.938 131.364Z" fill="black"/>
<path d="M133.664 141.102C135.147 141.102 136.35 139.899 136.35 138.414C136.35 136.93 135.147 135.727 133.664 135.727C132.18 135.727 130.977 136.93 130.977 138.414C130.977 139.899 132.18 141.102 133.664 141.102Z" fill="white"/>
<path fill-rule="evenodd" clip-rule="evenodd" d="M133.664 136.206C132.445 136.206 131.457 137.195 131.457 138.414C131.457 139.633 132.445 140.622 133.664 140.622C134.883 140.622 135.871 139.633 135.871 138.414C135.871 137.195 134.883 136.206 133.664 136.206ZM130.497 138.414C130.497 136.665 131.915 135.247 133.664 135.247C135.412 135.247 136.83 136.665 136.83 138.414C136.83 140.164 135.412 141.582 133.664 141.582C131.915 141.582 130.497 140.164 130.497 138.414Z" fill="black"/>
<path d="M108.044 227.107L95.7618 239.393C97.3931 241.121 99.6 242.177 102.095 242.177C106.892 242.177 110.731 238.337 110.731 233.538C110.827 230.946 109.771 228.738 108.044 227.107Z" fill="white"/>
<path fill-rule="evenodd" clip-rule="evenodd" d="M107.705 226.767C107.888 226.584 108.185 226.579 108.373 226.758C110.188 228.472 111.309 230.807 111.21 233.547C111.206 238.607 107.155 242.657 102.095 242.657C99.4575 242.657 97.1274 241.538 95.4131 239.723C95.2348 239.534 95.239 239.237 95.4226 239.054L107.705 226.767ZM108.045 227.784L96.4393 239.394C97.9481 240.836 99.9051 241.697 102.095 241.697C106.628 241.697 110.251 238.072 110.251 233.538C110.251 233.532 110.251 233.526 110.251 233.52C110.335 231.249 109.484 229.292 108.045 227.784Z" fill="black"/>
<path fill-rule="evenodd" clip-rule="evenodd" d="M109.659 243.65C109.905 243.747 110.027 244.025 109.93 244.272L107.819 249.647C107.722 249.894 107.443 250.015 107.197 249.919C106.95 249.822 106.829 249.543 106.926 249.296L109.037 243.921C109.134 243.674 109.412 243.553 109.659 243.65Z" fill="black"/>
<path fill-rule="evenodd" clip-rule="evenodd" d="M38.6746 230.683C38.7136 230.421 38.9577 230.24 39.2198 230.279L43.7296 230.951C43.9917 230.99 44.1725 231.235 44.1335 231.497C44.0945 231.759 43.8504 231.94 43.5883 231.901L39.0785 231.229C38.8164 231.19 38.6356 230.946 38.6746 230.683Z" fill="black"/>
<defs>
<linearGradient id="paint0_linear" x1="134.07" y1="119.24" x2="266.962" y2="143.179" gradientUnits="userSpaceOnUse">
<stop stop-color="#10A8A6"/>
<stop offset="1" stop-color="#B9E6E6"/>
</linearGradient>
<clipPath id="clip0">
<rect width="18.3418" height="18.3416" fill="white" transform="matrix(0.979132 -0.203224 0.203229 0.979131 82.7147 95.5842)"/>
</clipPath>
</defs>
</svg>
